# xmcd CD database file
#
# Track frame offsets:
#	150
#	25115
#	45862
#	59622
#	75600
#	95402
#	113290
#	136545
#	165517
#	185562
#	219540
#	235672
#	258525
#	275977
#	297357
#
# Disc length: 4380 seconds
#
# Revision: 0
# Processed by: cddbd v1.5.1PL0 Copyright (c) Steve Scherf et al.
# Submitted via: CDex 1.51
#
DISCID=c9111a0f
DTITLE=Compilation Album - Crystal
DYEAR=1900
DGENRE=Rock
TTITLE0=Going for the Gold - 1ST AVENUE
TTITLE1=Gimme All Your Love - MASQUERADE
TTITLE2=Hold Back the Night - RENEGADE
TTITLE3=Break Your Chains - TALISMAN
TTITLE4=Why Don't You Stay - GLENN HUGHES
TTITLE5=Can't Go On - IAN PARRY
TTITLE6=Respect - SINNER
TTITLE7=The Angel of Castle Forest - TONY BORG
TTITLE8=Masquerade - FORTUNE
TTITLE9=The Child Within - STEVEN ANDERSON
TTITLE10=Renegade - FORTUNE
TTITLE11=Hunger - BAD HABIT
TTITLE12=Deep in Your Heart - SNAKES IN PARADISE
TTITLE13=Think About Tomorrow - ROKO
TTITLE14=Heaven Only Knows - MISHA CALVIN
EXTD=
EXTT0=
EXTT1=
EXTT2=
EXTT3=
EXTT4=
EXTT5=
EXTT6=
EXTT7=
EXTT8=
EXTT9=
EXTT10=
EXTT11=
EXTT12=
EXTT13=
EXTT14=
PLAYORDER=
